<mxfile host="app.diagrams.net" modified="2023-12-04T17:23:21.134Z" agent="Mozilla/5.0 (X11; Ubuntu; Linux x86_64; rv:109.0) Gecko/20100101 Firefox/111.0" etag="6HWhKfstzPohvoPZT8m4" version="22.1.5" type="device">
  <diagram name="Page-1" id="hfEIHPZu9skdpidVNGpL">
    <mxGraphModel dx="2170" dy="739" grid="1" gridSize="10" guides="1" tooltips="1" connect="1" arrows="1" fold="1" page="1" pageScale="1" pageWidth="850" pageHeight="1100" math="0" shadow="0">
      <root>
        <mxCell id="0" />
        <mxCell id="1" parent="0" />
        <mxCell id="XvGXWfgPDiuJexI5HVNR-10" value="&lt;font style=&quot;font-size: 18px;&quot;&gt;Marmalade NG ledger&lt;/font&gt;" style="swimlane;whiteSpace=wrap;html=1;startSize=40;" parent="1" vertex="1">
          <mxGeometry x="-440" y="220" width="240" height="410" as="geometry" />
        </mxCell>
        <mxCell id="XvGXWfgPDiuJexI5HVNR-21" value="" style="shape=cube;whiteSpace=wrap;html=1;boundedLbl=1;backgroundOutline=1;darkOpacity=0.05;darkOpacity2=0.1;" parent="XvGXWfgPDiuJexI5HVNR-10" vertex="1">
          <mxGeometry x="120" y="155" width="90" height="50" as="geometry" />
        </mxCell>
        <mxCell id="GIL1Pgi4jAIrQpCyw8f6-17" value="&lt;font style=&quot;font-size: 17px;&quot;&gt;A&lt;/font&gt;" style="text;html=1;strokeColor=none;fillColor=none;align=center;verticalAlign=middle;whiteSpace=wrap;rounded=0;" vertex="1" parent="XvGXWfgPDiuJexI5HVNR-10">
          <mxGeometry x="180" y="40" width="60" height="30" as="geometry" />
        </mxCell>
        <mxCell id="XvGXWfgPDiuJexI5HVNR-11" value="&lt;font style=&quot;font-size: 18px;&quot;&gt;Marmalade NG ledger&lt;/font&gt;" style="swimlane;whiteSpace=wrap;html=1;startSize=40;" parent="1" vertex="1">
          <mxGeometry x="820" y="220" width="240" height="360" as="geometry" />
        </mxCell>
        <mxCell id="XvGXWfgPDiuJexI5HVNR-22" value="" style="shape=cube;whiteSpace=wrap;html=1;boundedLbl=1;backgroundOutline=1;darkOpacity=0.05;darkOpacity2=0.1;" parent="XvGXWfgPDiuJexI5HVNR-11" vertex="1">
          <mxGeometry x="50" y="155" width="90" height="50" as="geometry" />
        </mxCell>
        <mxCell id="GIL1Pgi4jAIrQpCyw8f6-18" value="&lt;font style=&quot;font-size: 16px;&quot;&gt;B&lt;/font&gt;" style="text;html=1;strokeColor=none;fillColor=none;align=center;verticalAlign=middle;whiteSpace=wrap;rounded=0;" vertex="1" parent="XvGXWfgPDiuJexI5HVNR-11">
          <mxGeometry y="40" width="60" height="30" as="geometry" />
        </mxCell>
        <mxCell id="XvGXWfgPDiuJexI5HVNR-19" value="" style="ellipse;whiteSpace=wrap;html=1;aspect=fixed;" parent="1" vertex="1">
          <mxGeometry x="120" y="180" width="420" height="420" as="geometry" />
        </mxCell>
        <mxCell id="XvGXWfgPDiuJexI5HVNR-25" value="Inbound - Instant Mint&lt;br&gt;Policy" style="swimlane;whiteSpace=wrap;html=1;startSize=50;" parent="1" vertex="1">
          <mxGeometry x="-160" y="260" width="90" height="120" as="geometry" />
        </mxCell>
        <mxCell id="XvGXWfgPDiuJexI5HVNR-26" value="OutBound&lt;br&gt;Policy" style="swimlane;whiteSpace=wrap;html=1;startSize=40;" parent="1" vertex="1">
          <mxGeometry x="-160" y="420" width="90" height="120" as="geometry" />
        </mxCell>
        <mxCell id="XvGXWfgPDiuJexI5HVNR-29" value="" style="endArrow=none;html=1;rounded=0;exitX=1.011;exitY=0.56;exitDx=0;exitDy=0;exitPerimeter=0;entryX=0;entryY=0.5;entryDx=0;entryDy=0;" parent="1" source="XvGXWfgPDiuJexI5HVNR-21" target="XvGXWfgPDiuJexI5HVNR-25" edge="1">
          <mxGeometry width="50" height="50" relative="1" as="geometry">
            <mxPoint x="400" y="450" as="sourcePoint" />
            <mxPoint x="450" y="400" as="targetPoint" />
          </mxGeometry>
        </mxCell>
        <mxCell id="XvGXWfgPDiuJexI5HVNR-30" value="" style="endArrow=none;html=1;rounded=0;exitX=0;exitY=0;exitDx=90;exitDy=35;exitPerimeter=0;entryX=0;entryY=0.5;entryDx=0;entryDy=0;" parent="1" source="XvGXWfgPDiuJexI5HVNR-21" target="XvGXWfgPDiuJexI5HVNR-26" edge="1">
          <mxGeometry width="50" height="50" relative="1" as="geometry">
            <mxPoint x="400" y="450" as="sourcePoint" />
            <mxPoint x="-190" y="500" as="targetPoint" />
          </mxGeometry>
        </mxCell>
        <mxCell id="XvGXWfgPDiuJexI5HVNR-37" value="" style="endArrow=none;html=1;rounded=0;exitX=-0.022;exitY=0.44;exitDx=0;exitDy=0;exitPerimeter=0;entryX=1;entryY=0.5;entryDx=0;entryDy=0;" parent="1" source="XvGXWfgPDiuJexI5HVNR-22" edge="1">
          <mxGeometry width="50" height="50" relative="1" as="geometry">
            <mxPoint x="420" y="300" as="sourcePoint" />
            <mxPoint x="780" y="320" as="targetPoint" />
          </mxGeometry>
        </mxCell>
        <mxCell id="XvGXWfgPDiuJexI5HVNR-38" value="" style="endArrow=none;html=1;rounded=0;entryX=0;entryY=0.48;entryDx=0;entryDy=0;entryPerimeter=0;exitX=1;exitY=0.5;exitDx=0;exitDy=0;" parent="1" target="XvGXWfgPDiuJexI5HVNR-22" edge="1">
          <mxGeometry width="50" height="50" relative="1" as="geometry">
            <mxPoint x="780" y="480" as="sourcePoint" />
            <mxPoint x="470" y="250" as="targetPoint" />
          </mxGeometry>
        </mxCell>
        <mxCell id="XvGXWfgPDiuJexI5HVNR-74" value="&lt;font style=&quot;font-size: 16px;&quot;&gt;Chain X&lt;/font&gt;" style="text;html=1;strokeColor=none;fillColor=none;align=center;verticalAlign=middle;whiteSpace=wrap;rounded=0;" parent="1" vertex="1">
          <mxGeometry x="-650" y="830" width="60" height="30" as="geometry" />
        </mxCell>
        <mxCell id="XvGXWfgPDiuJexI5HVNR-77" value="&lt;font style=&quot;font-size: 18px;&quot;&gt;Bridge&lt;/font&gt;" style="text;html=1;strokeColor=none;fillColor=none;align=center;verticalAlign=middle;whiteSpace=wrap;rounded=0;" parent="1" vertex="1">
          <mxGeometry x="350" y="550" width="60" height="30" as="geometry" />
        </mxCell>
        <mxCell id="XvGXWfgPDiuJexI5HVNR-83" value="&lt;font style=&quot;font-size: 9px;&quot;&gt;T&lt;/font&gt;&lt;font style=&quot;font-size: 9px;&quot;&gt;arget Spec&lt;br&gt;Ledger B&lt;/font&gt;" style="shape=process;whiteSpace=wrap;html=1;backgroundOutline=1;" parent="1" vertex="1">
          <mxGeometry x="-70" y="280" width="70" height="30" as="geometry" />
        </mxCell>
        <mxCell id="GIL1Pgi4jAIrQpCyw8f6-1" value="&lt;font style=&quot;font-size: 9px;&quot;&gt;T&lt;/font&gt;&lt;font style=&quot;font-size: 9px;&quot;&gt;arget Spec&lt;br&gt;Ledger B&lt;/font&gt;" style="shape=process;whiteSpace=wrap;html=1;backgroundOutline=1;" vertex="1" parent="1">
          <mxGeometry x="-70" y="500" width="70" height="30" as="geometry" />
        </mxCell>
        <mxCell id="GIL1Pgi4jAIrQpCyw8f6-2" value="Inbound&lt;br&gt;Policy" style="swimlane;whiteSpace=wrap;html=1;startSize=50;" vertex="1" parent="1">
          <mxGeometry x="690" y="260" width="90" height="120" as="geometry" />
        </mxCell>
        <mxCell id="GIL1Pgi4jAIrQpCyw8f6-3" value="OutBound&lt;br&gt;Policy" style="swimlane;whiteSpace=wrap;html=1;startSize=40;" vertex="1" parent="1">
          <mxGeometry x="690" y="420" width="90" height="120" as="geometry" />
        </mxCell>
        <mxCell id="GIL1Pgi4jAIrQpCyw8f6-4" value="&lt;font style=&quot;font-size: 9px;&quot;&gt;T&lt;/font&gt;&lt;font style=&quot;font-size: 9px;&quot;&gt;arget Spec&lt;br&gt;Ledger A&lt;br&gt;&lt;/font&gt;" style="shape=process;whiteSpace=wrap;html=1;backgroundOutline=1;" vertex="1" parent="1">
          <mxGeometry x="620" y="490" width="70" height="30" as="geometry" />
        </mxCell>
        <mxCell id="GIL1Pgi4jAIrQpCyw8f6-5" value="&lt;font style=&quot;font-size: 9px;&quot;&gt;T&lt;/font&gt;&lt;font style=&quot;font-size: 9px;&quot;&gt;arget Spec&lt;br&gt;Ledger A&lt;br&gt;&lt;/font&gt;" style="shape=process;whiteSpace=wrap;html=1;backgroundOutline=1;" vertex="1" parent="1">
          <mxGeometry x="620" y="280" width="70" height="30" as="geometry" />
        </mxCell>
        <mxCell id="GIL1Pgi4jAIrQpCyw8f6-8" value="" style="endArrow=classic;html=1;exitX=0;exitY=0.5;exitDx=0;exitDy=0;entryX=1;entryY=0.5;entryDx=0;entryDy=0;fillColor=#f8cecc;strokeColor=#b85450;strokeWidth=5;curved=1;" edge="1" parent="1" source="GIL1Pgi4jAIrQpCyw8f6-3" target="XvGXWfgPDiuJexI5HVNR-25">
          <mxGeometry width="50" height="50" relative="1" as="geometry">
            <mxPoint x="460" y="480" as="sourcePoint" />
            <mxPoint x="510" y="430" as="targetPoint" />
            <Array as="points">
              <mxPoint x="360" y="330" />
            </Array>
          </mxGeometry>
        </mxCell>
        <mxCell id="GIL1Pgi4jAIrQpCyw8f6-9" value="&lt;font style=&quot;font-size: 15px;&quot;&gt;Creator&lt;/font&gt;" style="shape=umlActor;verticalLabelPosition=bottom;verticalAlign=top;html=1;outlineConnect=0;" vertex="1" parent="1">
          <mxGeometry x="-130" y="80" width="30" height="60" as="geometry" />
        </mxCell>
        <mxCell id="GIL1Pgi4jAIrQpCyw8f6-10" value="" style="endArrow=classic;html=1;rounded=0;entryX=0.5;entryY=0;entryDx=0;entryDy=0;" edge="1" parent="1" target="XvGXWfgPDiuJexI5HVNR-25">
          <mxGeometry width="50" height="50" relative="1" as="geometry">
            <mxPoint x="-115" y="160" as="sourcePoint" />
            <mxPoint x="510" y="430" as="targetPoint" />
          </mxGeometry>
        </mxCell>
        <mxCell id="GIL1Pgi4jAIrQpCyw8f6-12" value="&lt;font style=&quot;font-size: 14px;&quot;&gt;Min tokens&lt;br&gt;&lt;/font&gt;" style="edgeLabel;html=1;align=center;verticalAlign=middle;resizable=0;points=[];" vertex="1" connectable="0" parent="GIL1Pgi4jAIrQpCyw8f6-10">
          <mxGeometry x="-0.26" y="-2" relative="1" as="geometry">
            <mxPoint x="2" y="23" as="offset" />
          </mxGeometry>
        </mxCell>
        <mxCell id="GIL1Pgi4jAIrQpCyw8f6-11" value="" style="endArrow=classic;html=1;exitX=1;exitY=0.5;exitDx=0;exitDy=0;entryX=0;entryY=0.5;entryDx=0;entryDy=0;fillColor=#d5e8d4;strokeColor=#82b366;strokeWidth=5;curved=1;" edge="1" parent="1" source="XvGXWfgPDiuJexI5HVNR-26" target="GIL1Pgi4jAIrQpCyw8f6-2">
          <mxGeometry width="50" height="50" relative="1" as="geometry">
            <mxPoint x="460" y="480" as="sourcePoint" />
            <mxPoint x="510" y="430" as="targetPoint" />
            <Array as="points">
              <mxPoint x="370" y="490" />
            </Array>
          </mxGeometry>
        </mxCell>
        <mxCell id="GIL1Pgi4jAIrQpCyw8f6-14" value="Tolens cannot&lt;br&gt;be minted here" style="whiteSpace=wrap;html=1;rounded=1;arcSize=50;align=center;verticalAlign=middle;strokeWidth=1;autosize=1;spacing=4;treeFolding=1;treeMoving=1;newEdgeStyle={&quot;edgeStyle&quot;:&quot;entityRelationEdgeStyle&quot;,&quot;startArrow&quot;:&quot;none&quot;,&quot;endArrow&quot;:&quot;none&quot;,&quot;segment&quot;:10,&quot;curved&quot;:1,&quot;sourcePerimeterSpacing&quot;:0,&quot;targetPerimeterSpacing&quot;:0};" vertex="1" parent="1">
          <mxGeometry x="580" y="170" width="120" height="50" as="geometry" />
        </mxCell>
        <mxCell id="GIL1Pgi4jAIrQpCyw8f6-15" value="" style="edgeStyle=entityRelationEdgeStyle;startArrow=none;endArrow=none;segment=10;curved=1;sourcePerimeterSpacing=0;targetPerimeterSpacing=0;rounded=0;exitX=0.5;exitY=0;exitDx=0;exitDy=0;" edge="1" target="GIL1Pgi4jAIrQpCyw8f6-14" parent="1" source="GIL1Pgi4jAIrQpCyw8f6-2">
          <mxGeometry relative="1" as="geometry">
            <mxPoint x="715" y="280" as="sourcePoint" />
            <Array as="points">
              <mxPoint x="730" y="200" />
              <mxPoint x="750" y="240" />
              <mxPoint x="750" y="218" />
              <mxPoint x="720" y="230" />
              <mxPoint x="750" y="220" />
            </Array>
          </mxGeometry>
        </mxCell>
      </root>
    </mxGraphModel>
  </diagram>
</mxfile>
